<?xml version="1.0" standalone="no"?>
<!DOCTYPE svg PUBLIC "-//W3C//DTD SVG 20010904//EN"
 "http://www.w3.org/TR/2001/REC-SVG-20010904/DTD/svg10.dtd">
<svg version="1.0" xmlns="http://www.w3.org/2000/svg"
 width="500.000000pt" height="500.000000pt" viewBox="0 0 500.000000 500.000000"
 preserveAspectRatio="xMidYMid meet">

<g transform="translate(0.000000,500.000000) scale(0.100000,-0.100000)"
fill="#000000" stroke="none">
<path d="M2455 4710 c-11 -5 -119 -45 -240 -90 -326 -120 -328 -121 -350 -130
-37 -15 -178 -68 -465 -175 -157 -58 -292 -113 -300 -121 -20 -20 -27 -451
-10 -637 27 -304 118 -632 242 -880 104 -207 189 -327 348 -490 142 -147 281
-258 455 -362 65 -39 323 -171 353 -180 27 -8 204 78 402 195 140 82 287 199
423 335 291 291 479 669 566 1140 33 178 44 344 40 613 -4 210 -7 254 -20 267
-14 15 -92 45 -429 169 -85 32 -190 70 -232 87 -43 16 -113 42 -155 58 -43 16
-177 66 -298 111 -121 44 -230 85 -243 91 -28 11 -60 11 -87 -1z m67 -159 c23
-10 319 -119 508 -188 196 -71 254 -93 539 -202 101 -39 187 -73 190 -76 10
-11 4 -419 -8 -535 -17 -156 -55 -350 -96 -485 -39 -129 -122 -329 -159 -386
-14 -21 -26 -41 -26 -44 0 -9 -73 -118 -131 -195 -59 -78 -232 -251 -309 -310
-25 -19 -47 -37 -50 -41 -31 -40 -437 -269 -477 -269 -55 0 -422 218 -558 333
-436 366 -668 877 -705 1550 -4 87 -6 208 -3 270 l6 113 106 41 c58 23 156 60
216 83 61 23 144 54 185 70 41 16 156 59 255 95 99 37 250 93 335 125 85 33
156 59 157 60 1 0 12 -4 25 -9z"/>
<path d="M2040 4141 l0 -99 -72 -23 c-86 -26 -134 -67 -213 -180 -67 -96 -75
-104 -202 -190 -57 -38 -107 -78 -113 -89 -16 -31 -11 -131 9 -175 10 -23 33
-53 50 -68 49 -41 72 -40 145 9 81 53 144 68 235 55 92 -14 162 3 216 51 26
22 33 25 28 12 -14 -40 -51 -84 -193 -229 -207 -212 -249 -288 -258 -462 l-4
-93 477 0 c378 0 476 3 472 13 -78 177 -83 242 -36 522 40 241 45 421 15 519
-46 153 -139 271 -259 331 -44 22 -79 47 -93 68 -27 40 -79 81 -136 107 -68
31 -68 31 -68 -79z m-80 -341 c0 -20 -32 -60 -48 -60 -16 0 -52 32 -52 46 0
17 33 32 73 33 21 1 27 -4 27 -19z"/>
<path d="M3004 4040 c-72 -35 -127 -91 -161 -167 -22 -48 -26 -73 -31 -204
l-5 -149 -36 0 c-77 0 -81 -16 -81 -277 0 -120 5 -249 10 -287 18 -122 85
-211 199 -265 53 -24 67 -26 229 -29 302 -6 345 23 443 308 28 84 29 88 29
301 0 243 1 238 -73 248 l-42 6 -5 150 c-5 140 -7 154 -35 208 -35 71 -98 131
-171 163 -82 36 -188 34 -270 -6z m243 -142 c18 -11 46 -41 61 -66 24 -43 27
-57 30 -179 l4 -133 -191 0 -191 0 0 128 c0 102 4 135 19 167 21 47 70 92 109
101 15 3 32 7 37 9 20 8 89 -8 122 -27z m-47 -595 c30 -17 50 -51 50 -84 0
-27 -26 -76 -47 -87 -14 -9 -15 -15 -5 -48 6 -22 14 -67 18 -101 l7 -63 -71 0
c-49 0 -71 4 -75 13 -3 8 2 54 10 102 15 86 14 90 -4 105 -102 82 4 230 117
163z"/>
<path d="M1760 2603 c-42 -8 -50 -22 -50 -83 l0 -58 118 -120 c64 -65 140
-137 167 -159 113 -90 373 -249 472 -288 41 -16 42 -16 111 13 39 16 104 49
146 73 l75 44 1 99 c0 136 -11 168 -87 243 -71 69 -83 93 -83 163 0 83 16 80
-445 79 -220 -1 -411 -4 -425 -6z"/>
<path d="M2898 1509 c-175 -59 -308 -198 -354 -372 -18 -68 -18 -221 0 -291
46 -177 163 -296 356 -367 89 -32 267 -32 348 -1 67 26 128 62 168 98 35 32
104 121 104 134 0 4 -43 30 -96 56 l-96 47 -40 -46 c-22 -26 -61 -59 -86 -75
-42 -24 -57 -27 -137 -27 -80 0 -95 3 -135 27 -85 50 -137 129 -160 241 -24
119 36 270 133 335 57 38 103 52 169 52 93 0 174 -40 223 -110 l27 -39 96 47
c54 26 98 48 100 49 7 3 -28 60 -62 99 -50 58 -131 111 -215 139 -95 32 -254
34 -343 4z"/>
<path d="M1550 991 l0 -531 120 0 120 0 0 184 0 184 173 4 c164 3 175 4 233
31 72 34 133 92 168 163 22 44 26 65 26 143 0 130 -34 199 -134 276 -80 61
-115 67 -423 72 l-283 5 0 -531z m526 309 c111 -54 94 -227 -25 -260 -20 -5
-87 -10 -148 -10 l-113 0 0 145 0 145 122 0 c102 0 128 -3 164 -20z"/>
</g>
</svg>
